<?xml version="1.0" encoding="UTF-8"?>
<!-- Generator: Adobe Illustrator 27.5.0, SVG Export Plug-In . SVG Version: 6.00 Build 0)  -->
<svg xmlns="http://www.w3.org/2000/svg" xmlns:xlink="http://www.w3.org/1999/xlink" version="1.1" id="Layer_1" x="0px" y="0px" viewBox="0 0 271.3 97.3" style="enable-background:new 0 0 271.3 97.3;" xml:space="preserve">
<style type="text/css">
	.st0{fill:#00A79D;}
	.st1{fill:#E6463B;}
	.st2{fill:#F99D36;}
	.st3{fill:#2794C0;}
	.st4{fill:#231F20;}
</style>
<g>
	<g>
		<path class="st0" d="M98.1,82.6c0,0.1,0,0.1,0,0.2c-0.3-0.1-0.4-0.4-0.5-0.6c-1.8-2.8-3.9-5.5-6.1-7.9c-0.2-0.2-0.3-0.4-0.5-0.6    s-0.4-0.3-0.5-0.6c0.2-0.1,0.1-0.4,0.3-0.5c0.2,0.1,0.4,0.3,0.5,0.5C93.8,76.2,96.4,79,98.1,82.6"></path>
		<path class="st0" d="M97.4,85.6c-0.4-0.4-0.6-0.9-0.9-1.3c-2.1-3-4.5-5.9-7-8.6c0.1-0.2,0.1-0.5,0.3-0.6c0.2,0,0.4,0.3,0.6,0.6    c1.9,2.3,3.9,4.4,5.6,6.9C96.6,83.5,97.3,84.4,97.4,85.6"></path>
		<path class="st0" d="M95.9,87.7L95.9,87.7c-2.1-2.8-4.4-5.8-7-8.2c-0.2-0.2-1.1-0.8-1.1-1.1c0-0.5,0.8-1.1,0.9-1.4    c2.1,2.4,3.9,5,5.7,7.7C95.1,85.7,95.8,86.6,95.9,87.7"></path>
		<path class="st0" d="M80.7,67.6c0.7-1.3,1.2-2.7,1-4.7c-0.3-2.2-1.1-3.7-2.2-5c-0.7-0.8-1.6-1.5-2.7-2c-0.5-0.3-1.1-0.5-1.8-0.6    c-0.7-0.1-1.6-0.3-2.1-0.2c-0.2,0-0.4,0-0.6,0.1c-0.2,0-0.4,0-0.6,0c-1.7,0.2-2.9,1.1-4.1,2.1c-0.7,0.5-1.3,1.2-1.8,1.8    c-0.2,0.2-0.5,0.4-0.6,0.6c-0.3,0.4-0.6,1-0.7,1.6c-0.1,0.4-0.2,0.8-0.3,1c0,0.2,0.1,0.5,0.1,0.7s-0.1,0.5,0,0.7    c0,0.3,0.1,0.7,0.1,1c0,0.4,0.1,0.8,0.1,1.1c0.2,0.5,0.5,0.7,0.8,1.2c0.2,0.4,0.4,0.9,0.6,1.2c0.3,0.5,0.8,0.9,1.3,1.3    s1,0.8,1.6,1.1c1.2,0.7,2.6,1.2,4.2,1.2c0.6,0,1.2-0.1,1.8-0.2c1.7-0.3,2.9-1,4-1.9c0.4-0.3,0.7-0.5,1-0.9    C80,68.6,80.4,68.1,80.7,67.6L80.7,67.6z M86.3,68c0,0.1-0.1,0.3-0.1,0.5c-0.1,0.2-0.1,0.3-0.2,0.4c-1.1-0.7-1.9-1.7-3.1-2.4    c-0.1,0.4-0.2,0.8-0.4,1.1c-0.1,0.2-0.2,0.2-0.2,0.3c0,0.2,0.6,0.5,0.8,0.7c0.6,0.5,1.1,0.9,1.6,1.3c0.2,0.2,0.7,0.5,0.7,0.7    c0,0.1-0.1,0.3-0.1,0.5s0,0.3-0.2,0.4c-0.4-0.1-0.6-0.4-0.9-0.6c-0.9-0.7-1.7-1.4-2.6-2c-0.1,0.2-0.5,0.5-0.6,0.8    c0.9,0.8,1.9,1.6,2.8,2.4c0.3,0.3,0.7,0.5,0.9,0.9c-0.4,0.5-0.4,1.4-0.8,1.8c-1.5-1.2-3-2.4-4.6-3.6c-1.7,1.1-3.7,2.1-6.3,2    c-1.3,0-2.4-0.3-3.5-0.7c-0.5-0.2-1-0.4-1.4-0.7c-0.8-0.4-1.3-0.9-1.9-1.4c-0.2-0.2-0.4-0.4-0.6-0.6c-0.3-0.4-0.6-0.9-0.9-1.2    c0-0.2,0-0.4-0.1-0.6c0-0.2-0.3-0.1-0.3-0.3c0-0.2-0.1-0.3-0.1-0.4c-0.2,0-0.4,0.1-0.6,0c-0.3-0.1-0.5-0.5-0.6-0.9    c-0.4-0.9-0.7-2.6-0.5-3.7c-4.9-1.5-10.8-2.5-16.9-2.5c-0.3,0-0.6-0.1-0.9-0.1c-0.3,0-0.7,0.1-1,0.1c-2.7,0-5.3,0.5-7.7,1.1    s-4.7,1.4-6.9,2c-0.2-0.3-0.4-0.5-0.4-0.9c4.8-1.8,10.6-3.1,16.8-3.5c0.4,0,0.8,0,1.2,0c0.3,0,0.6-0.1,0.9-0.1    c0.7,0,1.3,0.1,1.8,0.1c0.2,0,0.4-0.1,0.6-0.1c0.2,0,0.5,0.1,0.7,0.1c4.4,0.2,8.2,1.4,11.8,2.2c0.2-0.6,0.4-1.2,0.6-1.8    c-3.8-1.1-8.1-1.9-12.7-2.2c-2.1-0.1-4.3-0.3-6.5-0.1c-0.4,0-0.7,0.1-1.1,0.1c-5.7,0.5-10.3,2.4-14.9,3.9    c-0.1-0.3-0.3-0.5-0.3-0.9c2.5-0.9,5.2-1.7,8.1-2.4c2.9-0.6,5.9-1.2,9.2-1.3c3.5-0.2,6.8,0,10,0.4c3.1,0.5,5.9,1.2,8.7,1.9    c0.4-0.4,0.7-1.1,1-1.5c0.1-0.1,0.4-0.3,0.3-0.4c-3.5-1.1-7.5-2-11.8-2.4c-1.3-0.1-2.6-0.2-3.9-0.3c-0.2,0-0.4-0.1-0.5-0.1    s-0.2,0.1-0.3,0.1c-0.4,0.1-0.7,0-1.1,0c-0.5,0-0.9,0-1.4,0c-1.1,0-2.2,0.1-3.3,0.2c-5.9,0.7-10.8,2.9-15.7,4.5    c0-0.4-0.3-0.6-0.3-1c5.4-2.2,11.9-4,19.2-4.4c0.2,0,0.4-0.1,0.6-0.1c0.2,0,0.4,0.1,0.6,0.1c0.3,0,0.6-0.1,0.9-0.1    c0.5,0,1,0,1.5,0c0.3,0,0.5,0.1,0.8,0.1c0.2,0,0.4-0.1,0.6-0.1c0.1,0,0.3,0.1,0.4,0.1c0.2,0,0.3,0,0.5,0c5,0.3,9.5,1.5,13.7,2.7    c0.8-0.8,1.7-1.4,2.8-2c1-0.5,2.3-1,3.7-1c0.3,0,0.6,0.1,0.8,0c0.1,0,0.1-0.1,0.3-0.1c0.3-0.1,0.6-0.1,0.9-0.2c0.1,0,0.2,0,0.3,0    c0,0.1,0.3,0.1,0.3,0c0.1,0,0.2,0,0.4,0c0.7,0.1,1.5,0.4,2.2,0.7c1,0.4,2,1,2.7,1.7c0.3,0.2,0.5,0.5,0.7,0.7c0.4,0.4,0.7,1,1,1.6    c1.1,1.8,2,4.7,1.5,7.5c0.6,0.6,1.5,1.4,2.3,2.1C85.8,67.5,86.3,67.7,86.3,68"></path>
		<path class="st0" d="M78.5,66c0.3-0.6,0.6-1.5,0.6-2.4c0-1.5-0.7-3.2-1.3-4.2c-0.2-0.3-0.4-0.8-0.7-1.1c-0.1-0.1-0.3-0.2-0.4-0.3    c-0.2-0.1-0.3-0.2-0.5-0.3s-0.3,0-0.5-0.1c-0.1,0-0.2-0.1-0.3-0.1c-0.3-0.2-0.7-0.1-1.1-0.2c-0.4-0.1-0.8-0.1-1-0.1    c-0.4,0.1-0.5,0.2-0.7,0.2c-0.6,0.1-1.1,0.1-1.6,0.4c-0.3,0.1-0.6,0.4-0.9,0.6c-0.9,0.7-1.8,1.3-2.3,2.5c-0.4,0.9-0.6,2.3-0.4,3.5    c0.1,1,0.4,1.6,0.8,2.3c0.5,0.8,0.9,1.2,1.6,1.7c0.6,0.4,1.2,0.7,2,0.9c2.2,0.5,4-0.3,5.5-1.6C77.8,67.3,78.2,66.7,78.5,66    L78.5,66z M79.8,59.7c0.6,1.2,1,2.6,0.9,4.3c0,0.7-0.4,1.4-0.4,2.1c0,0.2,0,0.5,0,0.8c-0.1,0.3-0.3,0.8-0.5,1    c-0.4,0.6-1.3,1.6-1.9,2.1c-1.2,0.9-3.6,1.5-5.8,1.1c-0.3-0.1-0.6-0.2-0.9-0.3c-0.6-0.2-0.9-0.3-1.4-0.5s-0.9-0.6-1.3-0.9    c-0.2-0.4-0.7-0.7-1-1c-0.2-0.2-0.4-0.6-0.6-0.9c-0.9-1.7-1.3-4.1-0.5-6.3c0.2-0.6,0.5-1.2,0.9-1.7c0.2-0.3,0.3-0.5,0.6-0.8    c0.3-0.2,0.6-0.7,0.9-0.9c0.2-0.1,0.4-0.2,0.6-0.3s0.4-0.2,0.6-0.3c0.4-0.2,1-0.5,1.4-0.5c0.2,0,0.6,0.2,0.7,0c0,0-0.1-0.2,0-0.1    c0.1,0.1,0.3-0.1,0.5,0c0-0.2-0.1-0.4,0-0.6c0.2-0.2,0.9-0.3,1.4-0.3c2.1,0.1,3.9,1.2,4.9,2.5c0.2,0.2,0.4,0.4,0.5,0.6    C79.5,59,79.7,59.4,79.8,59.7"></path>
		<path class="st0" d="M76.2,65.4c0.1-0.4,0.5-0.8,0.2-1.2c0.3-0.7-0.1-1.4-0.3-1.9c-0.2-0.3-0.3-0.6-0.4-0.7    c-0.5-0.6-1.6-1-2.6-1.1c-0.1,0-0.1,0.1-0.2,0.1c-0.2,0-0.5,0-0.6,0.1c-0.2,0-0.4,0.1-0.5,0.2c-0.7,0.4-1.2,0.9-1.4,1.8    c-0.2,0.9,0,2.2,0.5,2.8c0.3,0.4,1,1,1.4,1.1c0.5,0.1,1,0.1,1.4,0c0.7-0.1,1.4,0.1,1.9-0.1c0.3-0.2,0.5-0.4,0.5-0.8    C76,65.6,76.2,65.6,76.2,65.4L76.2,65.4z M77.8,64.5c0.3,0.7,0.1,1.3-0.3,1.8c-0.3,0.5-0.8,1.1-1.3,1.5c-0.6,0.3-1.8,0.6-2.7,0.7    c-1.2,0-2.3-0.4-3-1c-0.7,0.2-1-0.4-1.4-0.7c-0.4-0.7-0.9-1.3-0.9-2.2c-0.1-0.6,0.1-1.4,0.3-2c0.2-0.6,0.4-1.2,0.7-1.6    c0.1-0.1,0.2-0.2,0.3-0.3c0.7-0.8,1.4-1.5,2.8-1.6c1.2-0.1,2.7,0.2,3.4,0.7c0.2,0.1,0.3,0.3,0.5,0.5s0.4,0.3,0.5,0.5    c0.2,0.3,0.4,0.8,0.6,1.3s0.3,1.1,0.3,1.6c0,0.2-0.1,0.2-0.2,0.4c0.1,0,0.1,0.2,0.1,0.3C77.4,64.5,77.7,64.4,77.8,64.5"></path>
		<path class="st0" d="M23.7,64.9c0.2,0.2,0.4,0.3,0.4,0.6c-1.8,0.6-3.4,1.4-5.4,1.9c0.7-0.6,1.6-0.8,2.4-1.3    c0.1-0.1,0.2-0.2,0.3-0.2c0.3-0.2,0.7-0.3,1.1-0.4C22.9,65.2,23.3,65,23.7,64.9L23.7,64.9"></path>
		<path class="st0" d="M22.5,62.8c0.1,0.2,0.2,0.3,0.3,0.6c-1.3,0.4-2.4,1.1-3.9,1.3C20,64,21.2,63.4,22.5,62.8"></path>
		<path class="st0" d="M21.5,61c0.1,0.1,0.1,0.3,0.1,0.4c-1,0.4-1.8,0.8-2.9,1l0,0c0.5-0.4,1.4-0.8,2.1-1.2    C21,61.1,21.3,60.8,21.5,61"></path>
	</g>
	<g>
		<path class="st1" d="M27.9,46.1c0.1-0.1,0.1-0.4,0-0.5c0-0.5-0.2-0.7-0.4-1c-0.5-1-0.9-2.1-1.6-2.7c-0.1-0.2-0.3-0.3-0.4-0.4    c-0.9-0.7-1.7-1.4-3.3-1.5c0-0.1-0.1,0-0.2,0c-0.1-0.1-0.4-0.1-0.5,0h-0.1c-3.6,0.5-5.7,2.4-6,6.2c0,0.1,0,0.3,0,0.4    c0.1,1.7,0.8,2.8,1.6,3.8c0.2,0.2,0.4,0.4,0.6,0.6c0.7,0.6,1.5,1.1,2.5,1.4c0.1-0.1,0.2-0.5,0.6-0.4c0.2,0,0.4,0,0.7,0    c2.1,0,3.5-0.7,4.6-1.6c0.2-0.1,0.3-0.3,0.4-0.4c0.7-0.9,1.3-1.9,1.3-3.5C27.9,46.3,27.8,46.1,27.9,46.1L27.9,46.1z M31.8,68.2    c-0.1,0.1-0.2-0.2-0.3-0.3c-3.3-4.1-5.8-9.3-7-15.5c-0.4,0.1-0.6,0.4-1.1,0.4c0.7,3.8,1.8,6.9,3.2,9.9c1.4,2.9,3.6,5.3,4.8,8.3    c-0.3,0-0.3-0.3-0.5-0.4c-3.9-4.9-7.8-9.8-9-17.5V53c-0.1,0-0.2,0-0.4,0c-0.2,0-0.2-0.1-0.3-0.1c-0.1-0.1-0.4-0.1-0.5,0    c1.3,8,5.3,13.6,9,19.3c-0.2,0-0.2-0.2-0.3-0.3c-1.7-2-3.4-4.3-5.1-6.5c-0.1-0.2-0.3-0.4-0.4-0.6c-0.3-0.5-0.6-1-1-1.5    c-0.1-0.2-0.2-0.4-0.3-0.5c0,0,0-0.1-0.1-0.1c-0.2-0.5-0.5-0.9-0.7-1.3c-0.1-0.2-0.1-0.4-0.3-0.5c-1.2-2.4-1.9-5.3-2.5-8.4    c-0.8-0.4-1.6-0.8-2.2-1.3c-0.2-0.2-0.4-0.4-0.6-0.6c-0.9-1-1.4-2.4-1.7-4c0-0.5,0-1.1,0-1.6c0.3-1.5,0.8-2.7,1.6-3.7    c0.2-0.2,0.5-0.4,0.7-0.7c0.5-0.4,1.1-0.7,1.5-1.2c0.7-2.3,1-4.9,2.1-6.8c0.5,0.1,1.2,0.4,1.7,0.6c-0.5,1.8-1,3.5-1.3,5.4    c0.3,0,0.6,0,0.9-0.1c0.6-1.6,1.1-3.3,1.8-4.9c0.4,0.1,0.8,0.3,1.2,0.4c-0.4,1.5-0.8,3-1.1,4.5c0.1,0.2,0.5,0.1,0.7,0.3    c0.4-1.5,0.7-3.1,1.1-4.5c0.4,0.1,0.6,0.2,1,0.3c-0.4,1.5-0.8,3-1,4.6c0.5,0.3,1,0.6,1.5,1c0.2,0.2,0.4,0.4,0.6,0.6    c1,1.1,1.7,2.6,1.8,4.7c0,0.1,0,0.3,0,0.4c-0.1,3.1-1.5,4.9-3.8,5.9c0.4,2.2,1,4.2,1.6,6.1l0,0c0.1,0.3,0.3,0.6,0.3,1    c0.2,0.4,0.3,0.9,0.6,1.3c0.1,0.3,0.3,0.5,0.3,0.9c0.2,0.5,0.4,1,0.7,1.4c0.1,0.4,0.3,0.6,0.4,0.9C30.1,65.2,31,66.6,31.8,68.2"></path>
		<path class="st1" d="M28.9,26.6c0.3-0.5,0.6-1.2,1.2-1.4c-0.4,1.1-1,2.1-1.5,3.2c-0.2,0-0.4,0-0.5-0.1    C28.3,27.7,28.6,27.1,28.9,26.6"></path>
		<path class="st1" d="M26.4,46.3c0.1,0.1,0.1-0.2,0-0.3c0-0.1,0-0.2,0-0.3c-0.1,0-0.1,0-0.2,0c-0.6-0.1-0.5-0.7-0.7-1.2    c-0.2-0.6-0.7-1-0.9-1.4c-0.2-0.2-0.4-0.5-0.7-0.7c-0.9-0.8-3-1-4.2-0.3c-0.2,0.2-0.3,0.6-0.6,0.7c-0.2,0.1-0.3,0.3-0.5,0.5    c-0.5,0.8-1.1,1.5-1.2,2.7c-0.1,0.1-0.1,0.4,0,0.5c0.1,1.1,0.5,1.8,1.1,2.5c0.1,0.2,0.3,0.3,0.4,0.4c0.6,0.5,1.5,1,2.5,1.1    c1.3,0.1,2.4-0.5,3.1-1c0.2-0.2,0.4-0.4,0.6-0.6c0.5-0.7,1-1.4,1-2.5C26.4,46.4,26.4,46.3,26.4,46.3L26.4,46.3z M27.1,45.5    c0,1.8-0.3,3.3-1.2,4.2c-0.2,0.1-0.3,0.3-0.5,0.5c-0.9,0.7-1.8,1.3-3.3,1.4c-0.2,0-0.5,0-0.7,0c-1.5-0.1-2.5-0.8-3.3-1.5    c-0.1-0.2-0.3-0.3-0.5-0.5c-1.6-1.4-1.8-5.4-0.3-7c0.3-0.3,0.6-0.5,0.8-0.8c0.9-0.7,2-1.2,3.6-1.3c0.2,0,0.5,0,0.7,0    c0.9,0,1.5,0.3,2.1,0.7c0.1,0.2,0.3,0.3,0.4,0.4c0.3,0.6,1,1,1.4,1.6c0.2,0.3,0.2,0.7,0.5,1C26.7,44.9,26.9,45.2,27.1,45.5"></path>
		<path class="st1" d="M26,27.9c0.6-1.2,1.1-2.6,2-3.3c-0.4,1.2-1,2.2-1.5,3.4C26.3,28,26.1,28,26,27.9"></path>
		<path class="st1" d="M24.2,46c0.1-0.1,0.1-0.4,0-0.4c-0.1-1.7-1.6-2.7-3.4-2.2c0.1,0.3,0.1,0.8-0.3,0.8c-0.2,0.1-0.3,0.3-0.4,0.4    c-0.3,0.4-0.7,0.8-0.7,1.5c0,0.6,0.3,1.1,0.6,1.5c0.4-0.2,0.6,0.2,0.8,0.3c0.7,0.3,1.9,0.3,2.3-0.1c0.2-0.1,0.3-0.3,0.4-0.4    C23.9,47,24.2,46.6,24.2,46L24.2,46z M25.4,45.5c0.2,2.2-1.3,3.8-3.3,4.1c-0.2,0-0.4,0-0.7,0c-0.8-0.1-1.4-0.4-1.8-0.8    c-0.1-0.2-0.3-0.3-0.4-0.4c-0.4-0.6-0.8-1.2-0.9-2.1c0-0.1,0-0.3,0-0.4c0-0.9,1-1.3,1-1.9c0.2-0.2,0.4-0.4,0.7-0.6    c0.3-0.1,0.5-0.3,0.6-0.5c0.8-0.1,1.1-0.4,1.9-0.3C23.9,42.6,25.2,44,25.4,45.5"></path>
		<path class="st1" d="M25.6,24.3c-0.4,1.2-1,2.2-1.5,3.3c-0.3,0-0.6,0-0.7-0.2c0.3-0.6,0.7-1.1,1-1.6C24.8,25.3,25,24.6,25.6,24.3"></path>
	</g>
	<path class="st2" d="M70.2,28.2c0.1-0.2,0.1-0.7,0-0.9c-0.2-2.2-1-4.1-2.2-5.5c-1.2-1.3-3-2.4-5.2-2.5c-3-0.2-4.9,0.9-6.4,2.2   c-0.2,0.1-0.3,0.3-0.4,0.4c-1.1,1.3-2,2.8-2.2,5c-0.1,0.1,0,0.3,0,0.4l0,0c-0.1,0.2-0.1,0.7,0,0.9c0.1,2.1,1.1,3.5,2.2,4.9   c1,1.4,2.5,3,4.8,2.9c0.1,0.1,0.4,0,0.5,0.1c0.1,0,0.1,0.1,0.3,0.1s0.4,0,0.4-0.1h0.1c0.2,0,0.3,0,0.5,0c0.1,0,0.2,0,0.3,0   c0.1,0.1,0.4,0.1,0.4,0c0.6,0,0.9-0.4,1.5-0.6c0.5-0.2,1-0.3,1.3-0.5c0.8-0.4,1.4-1.1,2-1.7C69.1,32.2,70.1,30.4,70.2,28.2   L70.2,28.2z M83.5,11.1c0.1-0.1,0.3-0.4,0.3-0.2c-1,1.7-2.2,3.2-3.3,4.9c-0.2,0.2-0.4,0.5-0.6,0.7c-0.3,0.2-0.4,0.4-0.6,0.7   c-0.1,0-0.1,0.1-0.1,0.1c-0.2,0.3-0.5,0.5-0.6,0.8c-0.3,0.3-0.6,0.6-0.8,1l0,0c-0.3,0.2-0.5,0.5-0.7,0.7c-0.5,0.5-1,1-1.5,1.6   c-0.7,0.6-1.3,1.3-1.9,1.9c-0.8,0.7-1.6,1.4-2.4,2.1c0.1,0.4,0.2,0.9,0.2,1.3c0,0.1,0,0.3,0,0.4s0,0.3,0,0.4c-0.1,0.1,0,0.3,0,0.4   c-0.2,2.4-1.1,4.1-2.2,5.6c-0.3,0.3-0.6,0.6-0.9,0.9c-0.8,0.6-1.6,1.3-2.8,1.6c-0.2,0,0.2,0.1,0,0.1c-0.2,0.1-0.5,0.1-0.7,0.2   c-0.1,0.1,0.2,0.1,0.1,0.3c-1.1,1.1-3.4,1-5.1,0.6c-1.7-0.4-3.1-1.2-4.1-2.2c-0.3-0.3-0.6-0.6-0.9-0.9c-0.1-0.1-0.2-0.2-0.3-0.3   c-2,0.7-4.1,1.2-6.4,1.6c-0.2,0-0.2,0.1-0.3,0.1c-2.1,0.3-3.8,1-6.2,1c-0.1,0-0.3,0-0.4,0c-0.7,0-1.4,0-2.2,0c-0.1-0.1-0.3,0-0.5,0   c-4.4-0.4-8.8-0.7-12.2-2c-0.3-0.1-0.6-0.2-1-0.3c-0.2-0.1-0.5-0.2-0.7-0.3c-0.3-0.2-0.8-0.3-1.2-0.4c-0.5-0.2-0.9-0.4-1.4-0.5   c-0.5-0.2-1.2-0.5-1.7-0.6c-0.3-0.3-0.9-0.4-1.4-0.6c-1-0.4-1.9-0.8-2.8-1.3c-0.4-0.2-0.9-0.4-1.1-0.9c3.2,1.2,6.5,2.5,10.2,3.1   c3.7,0.6,7.6,1.4,11.8,1.5c0.4,0.1,0.8,0,1.2,0.1c0.8,0,1.6,0,2.5,0c0.2,0,0.5,0,0.6,0c0.2,0,0.3,0,0.5,0c0.1,0,0.3,0,0.4,0   c4.2-0.2,8-0.8,11.5-1.8c-0.2-0.3-0.3-0.7-0.5-0.9c-3.6,1-7.3,1.8-11.5,2.1c-0.1,0-0.3,0-0.4,0c-0.2,0-0.4,0-0.7,0   c-0.7,0-1.3,0-2,0c-0.2,0-0.4,0-0.7,0c-0.1-0.1-0.3,0-0.4,0c-2.2-0.1-4.3-0.4-6.3-0.7s-3.9-0.9-5.6-1.4c-2.7-0.8-5.4-1.6-7.8-2.7   c-0.8-0.3-1.7-0.7-2.1-1.4c5.9,2.7,12.6,4.5,20.7,5c0.2,0.1,0.4,0.1,0.7,0.1c0.2,0,0.3,0,0.5,0c0.1,0.1,0.4,0,0.6,0   c0.9,0,1.8,0,2.7,0c0.4,0,0.8,0,1.1-0.1c4.1-0.1,7.7-0.8,11-1.8c-0.2-0.5-0.3-1-0.4-1.5c-1.5,0.4-3,0.8-4.6,1c-0.2,0.1,0,0-0.2,0.1   c-0.9,0.3-2,0.4-3,0.6s-2.1,0.4-3.2,0.4c-1,0.1-2.1,0.1-3.1,0c-2.2,0-4.3-0.5-6.3-0.7c-2.1-0.2-3.9-0.7-5.7-1.3   c-2.6-0.8-5.2-1.9-7.6-3c-0.8-0.3-1.7-0.6-2.1-1.3c2.2,0.8,4.4,1.6,6.9,2c0.1,0.2,0.4,0.2,0.7,0.2c0.6,0.2,1.2,0.3,1.9,0.4   c0.1,0.1,0.3,0.1,0.5,0.1c0.5,0.1,1,0.2,1.5,0.2c0.1,0.1,0.3,0.1,0.5,0.1c2.5,0.6,5.3,0.9,8.3,1c0.2,0.1,0.5,0.1,0.8,0.1   c0.2,0,0.4,0,0.6,0c0.9,0.1,2.2,0.1,3.1,0c0.2,0,0.4,0,0.6,0c0.3,0,0.6,0,0.8-0.1c3.5-0.1,6.6-0.7,9.5-1.4c0-0.6,0.1-1.4,0-1.9   c0-0.1,0-0.3,0-0.4c0.9-4.7,4.1-7.2,9.2-7.7c0.3,0,0.5,0,0.8,0c3,0.1,4.8,1.4,6.5,2.8c1.7-1.2,3.4-2.5,4.9-4c0.1,0,0.1-0.1,0.1-0.1   c0.2-0.2,0.5-0.4,0.6-0.7c0.2,0,0.2-0.2,0.3-0.3c0.2-0.2,0.4-0.4,0.6-0.6c0.2-0.2,0.4-0.4,0.6-0.6c0.3-0.2,0.5-0.5,0.7-0.8   c0.2-0.2,0.4-0.4,0.6-0.6c1.3-1.5,2.6-3.1,3.9-4.7h0.1c-0.7,1.7-2,3.1-3.1,4.5c-1.2,1.4-2.4,2.7-3.6,4c-0.3,0.3-0.6,0.5-0.8,0.8   c-0.1,0.2-0.3,0.3-0.4,0.4c-0.3,0.2-0.5,0.5-0.7,0.7c-1.1,0.9-2.1,1.9-3.3,2.8c0.2,0.4,0.6,0.7,0.7,1.2c0.9-0.7,1.7-1.4,2.5-2.2   c0.2-0.2,0.4-0.3,0.5-0.5c0.2-0.2,0.4-0.4,0.6-0.6c0.4-0.3,0.7-0.7,1-1c2.4-2.6,4.7-5.3,6.9-8.2c0.2-0.2,0.4-0.3,0.5-0.5   c0.2-0.1,0.3-0.2,0.4-0.3c-2.1,3.4-4.8,6.5-7.5,9.5c-0.7,0.6-1.3,1.3-1.9,1.9c-0.9,0.8-1.9,1.6-2.8,2.5c0.2,0.4,0.4,0.8,0.5,1.2   c1.3-0.8,2.2-1.9,3.3-2.8c0.4-0.4,0.8-0.8,1.2-1.2c0.2-0.2,0.4-0.4,0.5-0.6c0.1-0.1,0.3-0.2,0.4-0.4c2.4-2.5,4.6-5.3,6.9-8   C83.2,11.4,83.4,11.2,83.5,11.1"></path>
	<path class="st2" d="M67.7,28.2c0.1-0.2,0.1-0.6,0-0.8c-0.4-3.2-2.1-5.1-5.2-5.5c-0.2-0.1-0.6-0.1-0.7,0c-2.2,0.3-4.2,0.9-5.2,2.4   c0,0.5-0.3,0.7-0.4,1c0,0.6-0.3,0.9-0.3,1.4c-0.1,0-0.1,0.3,0,0.4c0,0.1,0,0.1,0,0.2s0.1,0.1,0.1,0.2s0,0.2,0,0.3   c-0.1,0.1-0.1,0.4,0,0.5c0,0.2,0,0.5,0,0.6c0.6,2.3,2.7,4.5,5.3,4.6c2.1,0.2,3.7-0.5,4.8-1.6C67,31,67.6,29.7,67.7,28.2L67.7,28.2z    M69.3,27.1c0,0.1,0,0.2,0,0.3c-0.1,0.1,0,0.3,0,0.4c-0.5,4-2.6,6.4-6.6,6.8c-0.3,0-0.6,0-0.9,0c-3.8-0.4-6-2.5-6.6-6.1   c0.1-0.1,0.1-0.3,0.1-0.4c-0.2,0.4,0-0.5-0.1-0.5c-0.5,0-0.5-0.4-0.6-0.8c0-0.2,0-0.3,0-0.5c0.2-1.5,0.9-2.5,1.6-3.5   c0.2-0.2,0.4-0.4,0.6-0.6c1.7-1.5,5.7-2.5,8.1-1c1,0,1.7,0.5,2.3,1c1.1,1,2,2.7,2.1,4.6C69.3,26.8,69.2,27,69.3,27.1"></path>
	<path class="st2" d="M65.1,26.9c0.3-1.2-0.5-1.5-0.9-2c-0.1,0-0.1-0.1-0.2-0.1c-0.1-0.1-0.2-0.1-0.3-0.2c0-0.1-0.1-0.1-0.1-0.1   c-0.4,0.2-0.8-0.1-1.2-0.1c-1-0.1-1.7,0.5-2.4,0.9c-0.1,0.1-0.3,0.2-0.4,0.4c-0.4,0.6-0.7,1.1-0.8,1.9c-0.1,1.8,1.1,2.9,2.6,3.1   c0.2,0.1,0.6,0.1,0.7,0c1.8-0.2,2.8-1.2,2.8-3.3C65.1,27.3,65.1,27,65.1,26.9L65.1,26.9z M66.5,26.9c0,0.4,0,0.5,0,0.9   c-0.1,1.2-0.6,2.1-1.2,2.8c0,0.8-0.6,1.1-1.2,1.3c-0.5,0.2-0.9,0.4-1.5,0.5c-1.4,0.1-2.7-0.7-3.5-1.2c-0.2-0.2-0.4-0.4-0.6-0.6   c-0.5-0.7-0.9-1.4-0.9-2.4c0-0.1,0-0.3,0-0.4c0.3-2.4,1.5-4,3.9-4.2c0.3,0,0.5,0,0.8,0s0.3,0.1,0.5,0.2c-0.1-0.2,0.2-0.1,0.3,0   c0.1,0,0-0.3,0.1-0.4c0.1,0,0.1-0.1,0.2,0c0.1,0,0.3,0,0.4,0C65.5,23.9,66.3,25,66.5,26.9"></path>
	<g>
		<path class="st3" d="M91.3,30.2c0.4-1,0.5-2.2,0.3-3.4c-0.2-1.7-1.2-2.8-2.5-3.4c-0.5-0.3-1.1-0.5-1.7-0.6c-0.1,0-0.1,0.1-0.1,0.1    c-0.3,0.1-0.6,0-0.9,0c-0.2,0-0.4,0.1-0.6,0.1c-0.5,0.1-0.9,0.2-1.2,0.3c-0.2,0.1-0.4,0.1-0.6,0.2s-0.3,0.3-0.6,0.4    c-0.8,0.4-1.5,1.2-1.8,1.9c-0.9,1.8-0.6,4.4,0.4,5.8c0.4,0.6,1.1,1.2,1.8,1.6c0.9,0.5,2.2,0.8,3.5,0.6c0.8-0.1,1.4-0.4,1.9-0.7    c0.8-0.4,1.4-0.9,1.9-1.6C90.9,30.9,91.2,30.5,91.3,30.2L91.3,30.2z M95.5,52.1c0,1,0,2,0,3C95,61.9,90.6,73.7,89.8,75    c-0.2,0.1-1,1.9-1.1,2.1c-0.2,0.5-1.6,3.2-2.6,3.5c1.8-3.2,3.5-6.5,4.9-10.1c1.7-4.6,2.9-9.6,3.4-15.4c0-0.6,0.1-1.1,0.1-1.7    c0.2-2.9-0.1-6-0.4-8.7c-0.6-4.4-1.7-8.4-3.1-11.9c-0.2-0.1-0.3,0.2-0.5,0.4s-0.4,0.2-0.4,0.4c0,0.1,0.1,0.5,0.2,0.7    c0.5,1.6,1.1,3.4,1.5,5.1c1,4.1,1.6,8.4,1.6,13.3c0,2.4-0.3,4.5-0.7,6.7C91.5,65.6,89.4,71,86.9,76c-0.7,1.4-1.4,2.9-2.4,4.2    c-0.1,0.1-0.2,0.4-0.4,0.4c1-1.8,2-3.7,2.8-5.7s1.4-4.2,2.1-6.4c0.7-2.2,1.3-4.4,1.8-6.7c0.4-1.8,0.6-3.6,0.8-5.6    c0-0.3,0-0.6,0.1-1c0.1-0.8,0.1-1.8,0.1-2.7c0-0.4,0.1-0.8,0.1-1.1c0-0.4-0.1-0.7-0.1-1.1c0-5.9-1.3-11.3-2.9-16    c-0.4,0-0.7,0.2-1.2,0.2c1.1,3.9,2,8,2.6,12.6c0.1,0.6,0.2,1.3,0.2,1.9c0.1,1.7,0.1,3.3,0,4.9c-0.4,4.7-1.4,8.8-2.6,12.8    c-1,3.2-2.1,6.5-3.4,9.4c-0.5,1.2-1.1,2.3-1.8,3.4c-0.2,0.2-0.3,0.5-0.5,0.7s-0.5,0.4-0.7,0.4c0.8-1.4,1.4-2.7,2.1-4.2    c0.2-0.5,1.6-4,1.6-4.2c0.1-0.2,0.3-1.3,0.5-1.9s0.4-1.3,0.5-1.5c1.5-4.6,2.7-10.1,2.7-16c0-0.3,0.1-0.7,0.1-1s-0.1-0.7-0.1-1    c0-6-1.3-11.6-3-16.3c-2.2-0.3-4-1.3-4.8-3c-0.1-0.2-0.3-0.5-0.4-0.7c-0.8-1.9-0.7-4.5,0.3-6.1c-1-1.3-2-2.5-3-3.6    c-0.3-0.4-0.7-0.8-1-1.2c0.2-0.2,0.4-0.6,0.7-0.7c1.1,1.1,2,2.2,3,3.4c0.3,0.4,0.5,0.9,0.9,1.2c0.2-0.1,0.4-0.3,0.6-0.5    c0.1-0.1,0.5-0.4,0.5-0.5s-0.5-0.5-0.5-0.6c-1.1-1.3-2.2-2.5-3.4-3.8c-0.1-0.1-0.2-0.1-0.2-0.3c0.2-0.3,0.4-0.6,0.7-0.7    c0.9,0.7,1.6,1.5,2.3,2.4c0.7,0.8,1.4,1.7,2.1,2.5c0.3-0.2,0.7-0.3,1.1-0.4c-0.7-1-1.5-1.9-2.4-2.7c-0.4-0.4-0.8-0.9-1.2-1.3    c-0.4-0.4-0.9-0.8-1.2-1.3c0.2-0.3,0.3-0.6,0.6-0.7c0.8,0.7,1.4,1.5,2.2,2.3c0.7,0.8,1.5,1.5,2.1,2.4c0.2,0.4,0.5,1.1,0.9,1.2    c0.3,0.1,0.7,0,1.1,0c1.1,0,1.9,0.3,2.7,0.7c0.9,0.5,1.9,1.1,2.5,2c0.3,0.5,0.6,1.2,0.7,1.9c0.1,0.7,0.1,1.3,0.1,2.1    c0,0.2,0.1,0.3,0.1,0.4c0,0.2-0.1,0.5-0.2,0.7c-0.1,0.3-0.1,0.5-0.1,0.7c-0.1,0.2-0.3,0.4-0.3,0.6C92,31,92,31.2,91.9,31.4    s-0.3,0.4-0.3,0.6c0,0.2,0.2,0.7,0.3,1c1.7,4.4,2.7,9.1,3.3,14.6c0.1,1.4,0.2,2.6,0.3,4.1v0.1C95.5,51.9,95.5,52.2,95.5,52.1"></path>
		<path class="st3" d="M90.5,28.8c0.1-0.6,0.1-1,0-1.6c-0.1-0.8-0.4-1.3-0.8-1.7c-0.4-0.5-1.2-1.2-2-1.4c-0.2,0.4-0.9,0.3-1.4,0.3    c-1.1,0.1-1.9,0.4-2.6,1c-0.4,0.4-0.7,0.9-0.9,1.5c-0.2,0.4-0.3,0.9-0.2,1.5c0.1,0.3,0.4,0.5,0.5,0.7c0.2,0.3,0.3,0.6,0.4,0.9    c0.5,0.8,0.9,1.3,1.8,1.6c0.4,0.1,0.9,0.3,1.3,0.3c0.2,0,0.5-0.1,0.8-0.2C89.1,31.4,90.2,30.5,90.5,28.8L90.5,28.8z M89.1,24    c1.6,0.8,2.5,2.4,2.3,4.8c-0.1,1.1-0.6,2-1.2,2.5c-0.8,0.8-2.2,1.7-3.9,1.6c-0.8,0-1.6-0.3-2.2-0.6c-0.4-0.2-0.7-0.4-1-0.8    c-0.6-0.6-1.2-1.8-1.3-3c-0.1-1.7,0.5-3.2,1.5-3.9c0.7-0.5,1.5-0.7,2.4-1.1c0.4,0,1-0.1,1.2-0.1h-0.1c0.1-0.1,0.4,0,0.6,0    c-0.1,0.1-0.2,0.1-0.3,0.1c0.2,0.2,0.5,0.1,0.7,0.1C88.1,23.5,88.7,23.8,89.1,24"></path>
		<path class="st3" d="M88.3,28.8c0.3-0.4,0.4-1.1,0.1-1.6c-0.2-0.5-0.8-1.1-1.3-1.3c-0.4-0.1-0.9-0.1-1.2,0c-0.2,0-0.3,0-0.4,0.1    c-0.8,0.3-1.3,1.2-1.4,2.1c0.7,0.2,0.7,1,1.1,1.5s1.1,0.8,2.1,0.5C87.5,29.6,88,29.3,88.3,28.8L88.3,28.8z M89.7,28.1    c0,1.7-1.3,2.9-2.8,3.1c-0.7,0.1-1.3,0.1-1.8-0.3c-0.5-0.4-0.5-1-1.1-1.4c-0.2-0.4-0.2-1-0.4-1.3c0.1-0.7,0.1-1.3,0.3-1.8    c0.1-0.2,0.6-0.7,0.8-0.9c0.3-0.2,0.9-0.4,1.3-0.5c0.9-0.2,1.8,0.2,2.4,0.5C89.1,26,89.7,26.8,89.7,28.1"></path>
		<path class="st3" d="M77.3,12.9c-0.2,0.2-0.3,0.4-0.6,0.6c-1-1-2.2-2-3.2-3.1c-0.3-0.3-0.9-0.8-1-1.2c0,0,0,0,0.1,0    c0.8,0.6,1.6,1.2,2.4,1.8C75.8,11.6,76.6,12.2,77.3,12.9"></path>
		<path class="st3" d="M76,14.3c-0.1,0.3-0.4,0.5-0.6,0.7c-1.3-1.2-2.6-2.5-3.9-3.8c-0.5-0.5-1.1-0.9-1.3-1.5    C72.2,11.1,74.1,12.7,76,14.3"></path>
		<path class="st3" d="M74.4,15.9c-0.2,0.3-0.4,0.5-0.7,0.6c-1.1-1-2.1-2.1-3.2-3.1s-2.2-2-3.2-3.1c0,0,0,0,0-0.1    c1.9,1.3,3.7,2.7,5.4,4.2C73.3,14.9,73.9,15.4,74.4,15.9"></path>
	</g>
</g>
<g>
	<g>
		<path class="st4" d="M124.1,28.7C124.2,28.7,124.2,28.7,124.1,28.7c0,0.1,0,0.2-0.1,0.2c-0.1,0.1-0.3,0.1-0.5,0.2s-0.6,0.1-1,0.2    s-1,0.1-1.7,0.1s-1.5,0.1-2.5,0.1v5.4h5.3c0,0,0,0.1,0,0.2c0,0.1-0.2,0.2-0.6,0.3c-0.3,0.1-0.9,0.2-1.6,0.3s-1.8,0.1-3.1,0.1    c0,1.1,0,2.1-0.1,2.8c0,0.8-0.1,1.4-0.2,1.9s-0.1,0.9-0.2,1.1c-0.1,0.3-0.1,0.4-0.2,0.6c-0.1,0.1-0.1,0.2-0.2,0.2h-0.1V28.7H124.1    "></path>
		<path class="st4" d="M127.8,42.2v-9.7c-0.2,1-0.4,1.8-0.6,2.6c-0.1,0.8-0.2,1.5-0.3,2.3c-0.1,0.7-0.1,1.5-0.1,2.3    c0,0.8,0,1.6,0,2.6L127.8,42.2L127.8,42.2z M127.3,30.4L127.3,30.4c-0.2,0-0.4-0.1-0.6-0.3c-0.1-0.2-0.2-0.4-0.2-0.6    s0.1-0.4,0.2-0.6c0.2-0.2,0.3-0.2,0.6-0.2c0.5,0,0.8,0.3,0.8,0.8C128,30.2,127.8,30.4,127.3,30.4"></path>
		<path class="st4" d="M132,36.9c0,0.5,0,1,0,1.4c0,0.4,0,0.8-0.1,1.2c-0.1,0.4-0.2,0.8-0.3,1.2s-0.3,0.9-0.6,1.4v-6.8    c0-0.6,0-1.6,0-2.9c0.2,0.2,0.4,0.4,0.5,0.5c0.1,0.2,0.2,0.3,0.3,0.5c0.1,0.1,0.1,0.3,0.1,0.5s0,0.3,0,0.5h0.1    c0.2-0.6,0.6-1.2,1-1.6c0.5-0.4,0.9-0.6,1.4-0.5c0.4,0.1,0.7,0.4,0.7,1c-0.1-0.1-0.3-0.2-0.5-0.2c-0.8,0-1.5,0.4-2,1.2    C132.2,35.2,132,36,132,36.9"></path>
		<path class="st4" d="M136.6,41c0.7,0.4,1.4,0.7,2.2,0.7c0.7,0,1.3-0.2,1.7-0.5s0.6-0.8,0.6-1.3s-0.2-0.9-0.5-1.3    c-0.3-0.3-0.8-0.6-1.6-0.9c-1.6-0.6-2.5-1.5-2.5-2.6c0-0.7,0.3-1.3,0.8-1.9c0.5-0.5,1.3-0.8,2.2-0.8c0.8,0,1.4,0.5,1.8,1.4    c-0.6-0.4-1.2-0.6-1.9-0.6c-0.6,0-1.1,0.2-1.4,0.5c-0.3,0.3-0.5,0.7-0.5,1.2s0.2,0.9,0.5,1.2s0.8,0.5,1.5,0.8    c1.7,0.7,2.5,1.6,2.5,2.9c0,0.8-0.3,1.5-0.9,2c-0.6,0.5-1.4,0.8-2.4,0.8C137.8,42.5,137.1,42,136.6,41"></path>
		<path class="st4" d="M143.3,32.6h1.6v-2.1c0.2,0.2,0.4,0.4,0.6,0.6c0.1,0.2,0.2,0.3,0.3,0.5s0.1,0.3,0.1,0.5s0,0.4,0,0.6h2.7    c-0.3,0.2-0.5,0.4-0.7,0.5c-0.2,0.1-0.4,0.2-0.6,0.2c-0.2,0.1-0.4,0.1-0.6,0.1c-0.2,0-0.5,0-0.7,0v6.3c0,1.3,0.5,2,1.4,2    c0.4,0,0.8-0.1,1.1-0.2c-0.3,0.7-0.7,1-1.2,1c-0.7,0-1.3-0.2-1.7-0.7s-0.6-1.2-0.6-2.3v-6.1c-0.2,0-0.3,0-0.4,0    c-0.1,0-0.3,0-0.4-0.1c-0.1-0.1-0.2-0.1-0.4-0.2C143.6,32.9,143.4,32.8,143.3,32.6"></path>
		<path class="st4" d="M156.1,29.6v6.1c0.4,0.1,1,0.1,1.7,0.1c1.2,0,2.2-0.3,2.9-0.9c0.7-0.6,1-1.4,1-2.5c0-1-0.3-1.8-1-2.3    c-0.6-0.5-1.5-0.7-2.7-0.7C157.3,29.4,156.7,29.4,156.1,29.6L156.1,29.6z M156.1,36.4c0,0.5,0,0.9-0.1,1.4c0,0.5-0.1,1-0.1,1.5    c-0.1,0.5-0.2,1-0.3,1.5s-0.3,1-0.5,1.4V29.3c0.9-0.5,1.9-0.7,2.9-0.7c1.6,0,2.8,0.4,3.6,1.1c0.7,0.7,1,1.6,1,2.7    c0,1.1-0.3,2-0.9,2.7c-0.9,1-2.2,1.5-4,1.5C157,36.6,156.5,36.5,156.1,36.4"></path>
		<path class="st4" d="M165.5,36.5h6.1c0-0.9-0.2-1.6-0.5-2.2c-0.5-0.8-1.3-1.2-2.3-1.2s-1.8,0.4-2.4,1.1    C165.9,34.9,165.6,35.6,165.5,36.5L165.5,36.5z M172.6,37.3h-7.1c0,1.5,0.4,2.6,1.1,3.3c0.6,0.7,1.5,1,2.6,1c1,0,1.9-0.2,2.7-0.5    c-0.6,0.9-1.5,1.4-2.8,1.4c-1.4,0-2.5-0.5-3.3-1.4s-1.2-2.1-1.2-3.5c0-1.6,0.4-2.9,1.2-3.8c0.8-1,1.9-1.4,3.1-1.4    c1.4,0,2.4,0.6,3.1,1.7c0.5,0.8,0.7,1.7,0.7,2.7C172.6,37,172.6,37.2,172.6,37.3"></path>
		<path class="st4" d="M178.7,41.7L178.7,41.7c1,0,1.9-0.4,2.6-1.2c0.7-0.8,1-1.8,1-3.1c0-1.1-0.3-2-0.8-2.8c-0.7-1-1.6-1.5-2.7-1.5    c-1.2,0-2.1,0.5-2.7,1.4c-0.6,0.8-0.9,1.8-0.9,2.9c0,1.2,0.3,2.2,1,3C176.9,41.3,177.7,41.7,178.7,41.7L178.7,41.7z M178.7,42.5    L178.7,42.5c-1.3,0-2.4-0.5-3.2-1.4s-1.3-2.1-1.3-3.6c0-1.6,0.5-2.9,1.4-3.8c0.9-0.9,1.9-1.3,3.2-1.3s2.4,0.5,3.2,1.4    c0.8,0.9,1.3,2.1,1.3,3.6c0,1.7-0.5,3-1.5,3.9C181,42,179.9,42.5,178.7,42.5"></path>
		<path class="st4" d="M186.8,36.5v1.9c0,0.9,0.3,1.7,1,2.3c0.6,0.6,1.4,0.9,2.3,0.9c1.1,0,2-0.4,2.6-1.2s0.9-1.9,0.9-3.2    c0-1.2-0.3-2.1-0.9-2.9c-0.6-0.8-1.5-1.3-2.5-1.3c-0.7,0-1.4,0.2-2,0.7s-1,1.1-1.3,1.9C186.9,36.1,186.8,36.3,186.8,36.5    L186.8,36.5z M186.8,34.4c0.7-1.4,1.9-2.1,3.6-2.1c1.2,0,2.2,0.5,3,1.4c0.8,0.9,1.1,2.1,1.1,3.5c0,1.7-0.4,3-1.3,3.9    c-0.8,0.9-1.8,1.3-3.1,1.3c-1.5,0-2.6-0.6-3.3-1.8l0,0c0,0.6,0,1,0,1.5c0,0.4,0,0.9-0.1,1.3c-0.1,0.4-0.2,0.9-0.3,1.3    c-0.1,0.4-0.3,0.9-0.6,1.5V35.6c0-0.8,0-1.8,0-3.1c0.2,0.2,0.4,0.4,0.5,0.5c0.1,0.1,0.2,0.3,0.3,0.4c0.1,0.1,0.1,0.3,0.1,0.4    C186.8,34,186.8,34.2,186.8,34.4"></path>
		<path class="st4" d="M197.1,42.2c0-1.4,0-2.7,0-3.8c0-1.1,0-2.3,0.1-3.3c0.1-1.1,0.2-2.2,0.3-3.3c0.1-1.1,0.3-2.4,0.6-3.8v14.3h-1    "></path>
		<path class="st4" d="M201.5,36.5h6.1c0-0.9-0.2-1.6-0.5-2.2c-0.5-0.8-1.3-1.2-2.3-1.2s-1.8,0.4-2.4,1.1    C201.9,34.9,201.6,35.6,201.5,36.5L201.5,36.5z M208.6,37.3h-7.1c0,1.5,0.4,2.6,1.1,3.3c0.6,0.7,1.5,1,2.6,1c1,0,1.9-0.2,2.7-0.5    c-0.6,0.9-1.5,1.4-2.8,1.4c-1.4,0-2.5-0.5-3.3-1.4s-1.2-2.1-1.2-3.5c0-1.6,0.4-2.9,1.2-3.8c0.8-1,1.9-1.4,3.1-1.4    c1.4,0,2.4,0.6,3.1,1.7c0.5,0.8,0.7,1.7,0.7,2.7C208.6,37,208.6,37.2,208.6,37.3"></path>
		<path class="st4" d="M210.7,41c0.7,0.4,1.4,0.7,2.2,0.7c0.7,0,1.3-0.2,1.7-0.5s0.6-0.8,0.6-1.3s-0.2-0.9-0.5-1.3    c-0.3-0.3-0.8-0.6-1.6-0.9c-1.6-0.6-2.5-1.5-2.5-2.6c0-0.7,0.3-1.3,0.8-1.9c0.5-0.5,1.3-0.8,2.2-0.8c0.8,0,1.4,0.5,1.8,1.4    c-0.5-0.4-1.2-0.6-1.9-0.6c-0.6,0-1.1,0.2-1.4,0.5c-0.3,0.3-0.5,0.7-0.5,1.2s0.2,0.9,0.5,1.2s0.8,0.5,1.5,0.8    c1.7,0.7,2.5,1.6,2.5,2.9c0,0.8-0.3,1.5-0.9,2c-0.6,0.5-1.4,0.8-2.4,0.8C211.8,42.5,211.1,42,210.7,41"></path>
	</g>
	<g>
		<path class="st4" d="M118.1,51.5v11.3c0.5,0.2,1.3,0.3,2.3,0.3c2.1,0,3.8-0.6,4.9-1.7c1.1-1.1,1.6-2.7,1.6-4.7    c0-1.8-0.5-3.2-1.5-4.2c-1.1-1.1-2.6-1.6-4.8-1.6C119.7,50.9,118.9,51.1,118.1,51.5L118.1,51.5z M117.3,63.4V50.8    c1.1-0.5,2.3-0.8,3.4-0.8c2.5,0,4.3,0.6,5.5,1.9c1.1,1.2,1.7,2.7,1.7,4.7c0,2.1-0.6,3.9-1.8,5.2c-1.3,1.4-3.2,2.1-5.9,2.1    C119,63.9,118,63.7,117.3,63.4"></path>
		<path class="st4" d="M131.3,63.8v-9.7c-0.2,1-0.4,1.8-0.6,2.6c-0.1,0.8-0.2,1.5-0.3,2.3c-0.1,0.7-0.1,1.5-0.1,2.3s0,1.6,0,2.6    L131.3,63.8L131.3,63.8z M130.8,52L130.8,52c-0.2,0-0.4-0.1-0.6-0.3c-0.1-0.2-0.2-0.4-0.2-0.6c0-0.2,0.1-0.4,0.2-0.6    c0.2-0.2,0.3-0.2,0.6-0.2c0.5,0,0.8,0.3,0.8,0.8C131.6,51.7,131.3,52,130.8,52"></path>
		<path class="st4" d="M134.1,62.5c0.7,0.4,1.4,0.7,2.2,0.7c0.7,0,1.3-0.2,1.7-0.5s0.6-0.8,0.6-1.3s-0.2-1-0.5-1.3s-0.8-0.6-1.6-0.9    c-1.6-0.6-2.5-1.5-2.5-2.6c0-0.7,0.3-1.3,0.8-1.9c0.5-0.5,1.3-0.8,2.2-0.8c0.8,0,1.4,0.5,1.8,1.4c-0.6-0.4-1.2-0.6-1.9-0.6    c-0.6,0-1.1,0.2-1.4,0.5c-0.3,0.3-0.5,0.7-0.5,1.2s0.2,0.9,0.5,1.2s0.8,0.5,1.5,0.8c1.7,0.7,2.5,1.6,2.5,2.9c0,0.8-0.3,1.5-0.9,2    c-0.6,0.5-1.4,0.8-2.4,0.8C135.3,64,134.6,63.5,134.1,62.5"></path>
		<path class="st4" d="M147.1,60.7v-2.1c-3.3-0.1-4.9,0.8-4.9,2.6c0,0.6,0.2,1.1,0.6,1.5c0.3,0.3,0.8,0.5,1.4,0.5    c0.7,0,1.4-0.2,1.9-0.6c0.4-0.3,0.8-0.8,0.9-1.3C147.1,61.1,147.1,60.9,147.1,60.7L147.1,60.7z M148.4,63.7    c-0.1,0.1-0.2,0-0.5-0.2c-0.2-0.2-0.5-0.6-0.8-1.1c-0.3,0.4-0.6,0.8-1.1,1.1c-0.6,0.4-1.2,0.5-2,0.5c-0.9,0-1.6-0.3-2.2-0.8    c-0.5-0.5-0.7-1.1-0.7-1.8c0-1.1,0.5-2,1.5-2.6s2.5-0.8,4.5-0.6v-0.4c-0.1-1.9-0.9-2.9-2.6-2.9c-0.9,0-1.8,0.2-2.6,0.5    c0.8-0.9,1.7-1.3,2.7-1.3c2.2,0,3.3,1.3,3.3,3.8v3.8C148.1,62,148.2,62.7,148.4,63.7"></path>
		<path class="st4" d="M152.4,58.1V60c0,0.3,0,0.5,0.1,0.7c0.2,0.7,0.6,1.3,1.2,1.8c0.6,0.5,1.2,0.7,2,0.7c1.1,0,1.9-0.4,2.5-1.2    s0.9-1.9,0.9-3.1c0-1.2-0.3-2.1-0.9-2.9c-0.6-0.8-1.5-1.2-2.5-1.2c-0.7,0-1.4,0.2-2,0.7s-1,1.1-1.2,1.9    C152.5,57.6,152.4,57.8,152.4,58.1L152.4,58.1z M152.3,62c0,0.2,0,0.3,0,0.5c0,0.1-0.1,0.3-0.1,0.4c-0.1,0.1-0.2,0.3-0.3,0.4    c-0.1,0.1-0.3,0.3-0.5,0.5c0.1-0.7,0.1-1.5,0.1-2.2V49.5c0.3,0.8,0.5,1.4,0.6,1.9s0.2,1,0.3,1.5c0,0.5,0.1,0.9,0.1,1.4s0,1,0,1.6    c0.7-1.4,1.9-2,3.5-2c1.2,0,2.2,0.5,3,1.4s1.1,2.1,1.1,3.6c0,1.6-0.5,2.9-1.4,3.9c-0.8,0.9-1.8,1.3-3,1.3    C154.3,64,153.1,63.3,152.3,62L152.3,62"></path>
		<path class="st4" d="M163.7,63.8v-9.7c-0.2,1-0.4,1.8-0.6,2.6c-0.1,0.8-0.2,1.5-0.3,2.3c-0.1,0.7-0.1,1.5-0.1,2.3s0,1.6,0,2.6    L163.7,63.8L163.7,63.8z M163.1,52L163.1,52c-0.2,0-0.4-0.1-0.6-0.3c-0.1-0.2-0.2-0.4-0.2-0.6c0-0.2,0.1-0.4,0.2-0.6    c0.2-0.2,0.3-0.2,0.6-0.2c0.5,0,0.8,0.3,0.8,0.8C163.9,51.7,163.7,52,163.1,52"></path>
		<path class="st4" d="M167,63.8c0-1.4,0-2.7,0-3.8s0-2.3,0.1-3.3c0.1-1.1,0.2-2.2,0.3-3.3s0.3-2.4,0.6-3.8v14.3h-1"></path>
		<path class="st4" d="M172.2,63.8v-9.7c-0.2,1-0.4,1.8-0.6,2.6c-0.1,0.8-0.2,1.5-0.3,2.3c-0.1,0.7-0.1,1.5-0.1,2.3s0,1.6,0,2.6    L172.2,63.8L172.2,63.8z M171.7,52L171.7,52c-0.2,0-0.4-0.1-0.6-0.3c-0.1-0.2-0.2-0.4-0.2-0.6c0-0.2,0.1-0.4,0.2-0.6    c0.2-0.2,0.3-0.2,0.6-0.2c0.5,0,0.8,0.3,0.8,0.8C172.5,51.7,172.3,52,171.7,52"></path>
		<path class="st4" d="M174.2,54.1h1.6V52c0.2,0.2,0.4,0.4,0.6,0.6c0.1,0.2,0.2,0.3,0.3,0.5s0.1,0.3,0.1,0.5s0,0.4,0,0.6h2.7    c-0.3,0.2-0.5,0.4-0.7,0.5s-0.4,0.2-0.6,0.2c-0.2,0.1-0.4,0.1-0.6,0.1c-0.2,0-0.5,0-0.7,0v6.3c0,1.3,0.5,2,1.4,2    c0.4,0,0.8-0.1,1.1-0.2c-0.3,0.7-0.7,1-1.2,1c-0.7,0-1.3-0.2-1.7-0.7s-0.6-1.2-0.6-2.3V55c-0.2,0-0.3,0-0.4,0    c-0.1,0-0.3,0-0.4-0.1c-0.1-0.1-0.2-0.1-0.4-0.2C174.5,54.4,174.4,54.3,174.2,54.1"></path>
		<path class="st4" d="M185.8,59.3c0.3-0.7,0.5-1.3,0.8-1.9c0.3-0.6,0.6-1.1,0.9-1.6c0.3-0.5,0.7-1.1,1.2-1.7l-2.9,7.2    c-0.7,1.7-1.2,2.9-1.6,3.7c-0.5,1-1.1,1.7-1.6,2.2c-0.6,0.5-1.2,0.6-2,0.2c0.6-0.2,1.2-0.6,1.7-1.1c0.7-0.7,1.2-1.5,1.6-2.4    c0.1-0.2,0.1-0.3,0.1-0.4c0-0.1,0-0.2-0.1-0.4l-3.6-9c0.5,0.6,0.9,1.2,1.3,1.7c0.3,0.5,0.6,1,0.9,1.5c0.3,0.5,0.5,1,0.7,1.5    s0.4,1.1,0.7,1.7c0.3,0.7,0.5,1.4,0.7,2.1l0,0l0.2-0.7C185.2,60.9,185.5,60,185.8,59.3"></path>
		<path class="st4" d="M204.6,63.8c-0.6-0.6-1.2-1.3-1.8-1.9c-0.6-0.7-1.1-1.3-1.6-2s-1-1.3-1.4-2s-0.9-1.3-1.3-1.9    c-1.3-1.9-2.2-3.4-2.9-4.3c0.2,1.2,0.3,3,0.3,5.3c0,0.6,0,1.2,0,1.8s0,1.1-0.1,1.6s-0.1,1.1-0.3,1.6c-0.1,0.6-0.3,1.2-0.5,1.8    V50.2c0.7,0.8,1.4,1.5,1.9,2.1c0.6,0.6,1.1,1.3,1.5,1.9c0.5,0.6,0.9,1.2,1.4,1.9c0.4,0.6,0.9,1.3,1.4,2.1c1.1,1.7,2.1,3.2,2.8,4.3    c-0.3-1.4-0.4-3.2-0.4-5.6c0-0.6,0-1.2,0-1.8c0-0.5,0-1.1,0.1-1.6s0.2-1.1,0.3-1.6s0.3-1.1,0.6-1.8V63.8"></path>
		<path class="st4" d="M208,58.1h6.1c0-0.9-0.2-1.6-0.5-2.2c-0.5-0.8-1.3-1.2-2.3-1.2s-1.8,0.4-2.4,1.1    C208.4,56.4,208.1,57.2,208,58.1L208,58.1z M215.1,58.8H208c0,1.5,0.4,2.6,1.1,3.3c0.6,0.7,1.5,1,2.6,1c1,0,1.9-0.2,2.7-0.5    c-0.6,0.9-1.5,1.4-2.8,1.4c-1.4,0-2.5-0.5-3.3-1.4s-1.2-2.1-1.2-3.5c0-1.6,0.4-2.9,1.2-3.8c0.8-1,1.9-1.4,3.1-1.4    c1.4,0,2.4,0.6,3.1,1.7c0.5,0.8,0.7,1.7,0.7,2.7C215.2,58.5,215.1,58.7,215.1,58.8"></path>
		<path class="st4" d="M216.3,54.1h1.6V52c0.2,0.2,0.4,0.4,0.6,0.6c0.1,0.2,0.2,0.3,0.3,0.5s0.1,0.3,0.1,0.5s0,0.4,0,0.6h2.7    c-0.3,0.2-0.5,0.4-0.7,0.5s-0.4,0.2-0.6,0.2c-0.2,0.1-0.4,0.1-0.6,0.1c-0.2,0-0.5,0-0.7,0v6.3c0,1.3,0.5,2,1.4,2    c0.4,0,0.8-0.1,1.1-0.2c-0.3,0.7-0.7,1-1.2,1c-0.7,0-1.3-0.2-1.7-0.7s-0.6-1.2-0.6-2.3V55c-0.2,0-0.3,0-0.4,0    c-0.1,0-0.3,0-0.4-0.1c-0.1-0.1-0.2-0.1-0.4-0.2C216.7,54.4,216.5,54.3,216.3,54.1"></path>
		<path class="st4" d="M226.5,63.8c-0.2,0.1-0.3,0.2-0.4,0.2c-0.1,0-0.3-0.1-0.4-0.2l-3-9.7c0.4,0.5,0.7,1,1,1.5    c0.3,0.4,0.5,0.9,0.7,1.3c0.2,0.4,0.3,0.9,0.5,1.3c0.1,0.4,0.3,0.9,0.4,1.5c0.4,1.3,0.7,2.3,0.8,3h0.1c0.2-0.7,0.5-1.7,1-3    l1.9-5.5c0.1-0.1,0.2-0.1,0.4-0.2c0.2,0,0.3,0,0.5,0.2l1.9,5.5c0.4,1.1,0.7,2.1,0.9,3.1l0,0c0.1-0.6,0.4-1.6,0.9-3    c0.2-0.5,0.3-1,0.5-1.5c0.1-0.4,0.3-0.9,0.5-1.3c0.2-0.4,0.4-0.8,0.7-1.3c0.3-0.4,0.6-0.9,1-1.5l-3.2,9.7    c-0.1,0.1-0.3,0.2-0.4,0.2c-0.1,0-0.3-0.1-0.5-0.2l-1.8-5.4c-0.3-0.7-0.6-1.8-1-3.3l0,0c-0.2,0.9-0.6,2-1,3.3L226.5,63.8"></path>
		<path class="st4" d="M242,63.2L242,63.2c1,0,1.9-0.4,2.6-1.2c0.7-0.8,1-1.8,1-3.1c0-1-0.3-2-0.8-2.8c-0.7-1-1.6-1.5-2.7-1.5    c-1.2,0-2.1,0.5-2.7,1.4c-0.6,0.8-0.9,1.8-0.9,2.9c0,1.2,0.3,2.2,1,3C240.2,62.8,241.1,63.2,242,63.2L242,63.2z M242,64L242,64    c-1.3,0-2.4-0.5-3.2-1.4s-1.3-2.1-1.3-3.6c0-1.6,0.5-2.9,1.4-3.8c0.9-0.9,1.9-1.3,3.2-1.3s2.4,0.5,3.2,1.4s1.2,2.1,1.2,3.6    c0,1.7-0.5,3-1.5,3.9C244.3,63.6,243.2,64,242,64"></path>
		<path class="st4" d="M250.1,58.4c0,0.5,0,1,0,1.4s0,0.8-0.1,1.2s-0.2,0.8-0.3,1.2s-0.3,0.9-0.6,1.4v-6.8c0-0.6,0-1.6,0-2.9    c0.2,0.2,0.4,0.4,0.5,0.5c0.1,0.2,0.2,0.3,0.3,0.5c0.1,0.1,0.1,0.3,0.1,0.5s0,0.3,0,0.5h0.1c0.2-0.6,0.6-1.2,1-1.6    c0.5-0.4,0.9-0.6,1.4-0.5c0.4,0.1,0.7,0.4,0.7,1c-0.1-0.1-0.3-0.2-0.5-0.2c-0.8,0-1.5,0.4-2,1.2C250.3,56.7,250.1,57.5,250.1,58.4    "></path>
		<path class="st4" d="M256.2,59.7c0,0.4,0,0.7,0,1.1c0,0.3,0,0.6-0.1,0.9c-0.1,0.3-0.2,0.6-0.3,0.9c-0.1,0.3-0.3,0.7-0.6,1.1V49.5    c0.2,0.9,0.4,1.7,0.6,2.5c0.1,0.7,0.2,1.5,0.3,2.2s0.1,1.4,0.1,2.2c0,0.7,0,1.6,0,2.5c0.3-0.3,0.6-0.7,0.9-1.1    c0.3-0.3,0.6-0.7,0.9-1s0.6-0.6,0.9-0.8c0.3-0.3,0.7-0.5,1.1-0.8s1-0.6,1.6-1l-3.9,4l4.4,5.7c-0.7-0.5-1.2-0.9-1.7-1.4    c-0.5-0.4-0.9-0.8-1.3-1.2s-0.7-0.8-1.1-1.2c-0.3-0.4-0.7-0.9-1.1-1.4L256.2,59.7"></path>
	</g>
</g>
</svg>
